<?xml version="1.0" encoding="UTF-8" standalone="no"?>
<svg width="83px" height="85px" viewBox="0 0 83 85" version="1.1" xmlns="http://www.w3.org/2000/svg" xmlns:xlink="http://www.w3.org/1999/xlink" xmlns:sketch="http://www.bohemiancoding.com/sketch/ns">
    <!-- Generator: Sketch 3.1 (8751) - http://www.bohemiancoding.com/sketch -->
    <title>Rectangle 6</title>
    <desc>Created with Sketch.</desc>
    <defs></defs>
    <g id="Page-1-Copy-Copy" stroke="none" stroke-width="1" fill="none" fill-rule="evenodd" sketch:type="MSPage">
        <g id="Artboard-1" sketch:type="MSArtboardGroup" transform="translate(-362.000000, -78.000000)" fill="#ABB7CE">
            <g id="Rectangle-9-+-комплексное-IT-обслу-+-ТИТАНИУМ-СОФТ-2-+-ТИТАНИУМ-СОФТ-+-Rectangle-6" sketch:type="MSLayerGroup" transform="translate(362.000000, 70.000000)">
                <g id="Rectangle-9-+-Rectangle-6" sketch:type="MSShapeGroup">
                    <g transform="translate(0.000000, 8.000000)">
                        <path d="M37,40 L37,82 L51,82 L51,40 L37,40 L37,40 Z M0,0 L0,85 L83,85 L83,0 L0,0 Z M66,29 L66,40 L80,40 L80,29 L66,29 Z M66,43 L66,71.4868164 C66,72.5393655 67.0776367,75.0297852 69.5688477,78.5180664 C72.0600586,82.0063477 77.4980469,82 77.4980469,82 L80,82 L80,43 L66,43 Z M23,29 L23,40 L63,40 L63,29 L23,29 Z" id="Rectangle-6"></path>
                    </g>
                </g>
            </g>
        </g>
    </g>
</svg>
